<svg width="267" height="62" viewBox="0 0 267 62" fill="none" xmlns="http://www.w3.org/2000/svg">
<path d="M25.05 50H2.02C1.04 50 0.55 49.51 0.55 48.53V6.46C0.55 5.48 1.04 4.99 2.02 4.99H7.97C8.95 4.99 9.44 5.48 9.44 6.46V41.46C9.44 41.9733 9.72 42.23 10.28 42.23H25.05C25.9833 42.23 26.45 42.7433 26.45 43.77V48.53C26.45 49.51 25.9833 50 25.05 50ZM48.3753 50H42.1453C38.4586 50 35.612 49.02 33.6053 47.06C31.5986 45.1 30.5953 42.2767 30.5953 38.59V25.71C30.5953 22.0233 31.5986 19.2 33.6053 17.24C35.612 15.28 38.4586 14.3 42.1453 14.3H48.3753C52.0153 14.3 54.8386 15.3033 56.8453 17.31C58.8986 19.27 59.9253 22.07 59.9253 25.71V38.59C59.9253 42.23 58.8986 45.0533 56.8453 47.06C54.8386 49.02 52.0153 50 48.3753 50ZM43.4753 42.37H47.0453C48.5386 42.37 49.5886 42.0667 50.1953 41.46C50.8486 40.8533 51.1753 39.8033 51.1753 38.31V25.99C51.1753 24.4967 50.8486 23.4467 50.1953 22.84C49.5886 22.2333 48.5386 21.93 47.0453 21.93H43.4753C41.982 21.93 40.932 22.2333 40.3253 22.84C39.7186 23.4467 39.4153 24.4967 39.4153 25.99V38.31C39.4153 39.8033 39.7186 40.8533 40.3253 41.46C40.932 42.0667 41.982 42.37 43.4753 42.37ZM79.4405 50H77.7605C74.0739 50 71.2272 49.02 69.2205 47.06C67.2139 45.1 66.2105 42.2767 66.2105 38.59V25.71C66.2105 22.0233 67.2139 19.2 69.2205 17.24C71.2272 15.28 74.0739 14.3 77.7605 14.3H93.9305C94.9572 14.3 95.4705 14.79 95.4705 15.77V48.53C95.4705 49.51 94.9572 50 93.9305 50H88.0505C87.0705 50 86.5805 49.51 86.5805 48.53V46.22H86.3005C85.7872 47.48 84.8772 48.4367 83.5705 49.09C82.2639 49.6967 80.8872 50 79.4405 50ZM86.5805 36.98V22.77C86.5805 22.2567 86.3005 22 85.7405 22H79.1605C77.6672 22 76.6172 22.3267 76.0105 22.98C75.4039 23.5867 75.1005 24.6367 75.1005 26.13V38.17C75.1005 39.6633 75.4039 40.7367 76.0105 41.39C76.6172 41.9967 77.6672 42.3 79.1605 42.3H81.7505C84.9705 42.3 86.5805 40.5267 86.5805 36.98ZM116.231 50H113.361C109.768 50 107.038 49.02 105.171 47.06C103.351 45.1 102.441 42.2767 102.441 38.59V25.71C102.441 22.0233 103.351 19.2 105.171 17.24C107.038 15.28 109.768 14.3 113.361 14.3H116.231C117.678 14.3 119.054 14.6267 120.361 15.28C121.668 15.8867 122.578 16.82 123.091 18.08H123.371V2.26C123.371 1.28 123.861 0.789999 124.841 0.789999H130.791C131.771 0.789999 132.261 1.28 132.261 2.26V48.53C132.261 49.51 131.771 50 130.791 50H124.841C123.861 50 123.371 49.51 123.371 48.53V46.22H123.091C122.578 47.48 121.668 48.4367 120.361 49.09C119.054 49.6967 117.678 50 116.231 50ZM123.371 36.98V27.32C123.371 23.7733 121.761 22 118.541 22H115.391C113.898 22 112.848 22.3267 112.241 22.98C111.634 23.5867 111.331 24.6367 111.331 26.13V38.17C111.331 39.6633 111.634 40.7367 112.241 41.39C112.848 41.9967 113.898 42.3 115.391 42.3H118.541C121.761 42.3 123.371 40.5267 123.371 36.98ZM140.337 8.28V2.19C140.337 1.25667 140.803 0.789999 141.737 0.789999H147.827C148.76 0.789999 149.227 1.23333 149.227 2.12V8.28C149.227 9.21333 148.76 9.68 147.827 9.68H141.737C140.803 9.68 140.337 9.21333 140.337 8.28ZM140.337 48.53V15.77C140.337 14.79 140.803 14.3 141.737 14.3H147.757C148.737 14.3 149.227 14.79 149.227 15.77V48.53C149.227 49.1367 149.11 49.5333 148.877 49.72C148.69 49.9067 148.34 50 147.827 50H141.807C140.827 50 140.337 49.51 140.337 48.53ZM164.702 50H158.752C157.772 50 157.282 49.51 157.282 48.53V15.77C157.282 14.79 157.772 14.3 158.752 14.3H164.702C165.682 14.3 166.172 14.79 166.172 15.77V18.08H166.452C167.478 15.56 169.765 14.3 173.312 14.3H175.552C182.878 14.3 186.542 18.1033 186.542 25.71V48.53C186.542 49.51 186.028 50 185.002 50H179.122C178.142 50 177.652 49.51 177.652 48.53V26.13C177.652 24.6367 177.325 23.5867 176.672 22.98C176.065 22.3267 175.015 22 173.522 22H171.002C167.782 22 166.172 23.7733 166.172 27.32V48.53C166.172 49.51 165.682 50 164.702 50ZM206.522 48.39H204.212C200.619 48.39 197.889 47.41 196.022 45.45C194.202 43.49 193.292 40.6667 193.292 36.98V25.71C193.292 22.0233 194.296 19.2 196.302 17.24C198.309 15.28 201.156 14.3 204.842 14.3H221.012C222.039 14.3 222.552 14.79 222.552 15.77V50.28C222.552 53.92 221.526 56.72 219.472 58.68C217.466 60.64 214.642 61.62 211.002 61.62H197.562C197.002 61.62 196.606 61.5033 196.372 61.27C196.186 61.0833 196.092 60.7333 196.092 60.22V55.39C196.092 54.41 196.582 53.92 197.562 53.92H209.532C211.026 53.92 212.076 53.5933 212.682 52.94C213.336 52.3333 213.662 51.3067 213.662 49.86V44.54H213.382C212.869 45.8 211.959 46.7567 210.652 47.41C209.346 48.0633 207.969 48.39 206.522 48.39ZM213.662 35.37V22.77C213.662 22.2567 213.382 22 212.822 22H206.242C204.749 22 203.699 22.3267 203.092 22.98C202.486 23.5867 202.182 24.6367 202.182 26.13V36.56C202.182 38.0533 202.486 39.1033 203.092 39.71C203.699 40.3167 204.749 40.62 206.242 40.62H208.832C212.052 40.62 213.662 38.87 213.662 35.37ZM237.991 39.92V48.53C237.991 49.51 237.548 50 236.661 50H230.431C229.498 50 229.031 49.51 229.031 48.53V39.99C229.031 39.0567 229.498 38.59 230.431 38.59H236.661C237.548 38.59 237.991 39.0333 237.991 39.92ZM252.278 39.92V48.53C252.278 49.51 251.835 50 250.948 50H244.718C243.785 50 243.318 49.51 243.318 48.53V39.99C243.318 39.0567 243.785 38.59 244.718 38.59H250.948C251.835 38.59 252.278 39.0333 252.278 39.92ZM266.565 39.92V48.53C266.565 49.51 266.122 50 265.235 50H259.005C258.072 50 257.605 49.51 257.605 48.53V39.99C257.605 39.0567 258.072 38.59 259.005 38.59H265.235C266.122 38.59 266.565 39.0333 266.565 39.92Z" fill="#FFFF88"/>
</svg>
