<svg width="148" height="45" viewBox="0 0 148 45" fill="none" xmlns="http://www.w3.org/2000/svg">
<path d="M6.84 37H3.44C2.88 37 2.6 36.72 2.6 36.16V12.12C2.6 11.56 2.88 11.28 3.44 11.28H13.2C15.28 11.28 16.8933 11.8533 18.04 13C19.1867 14.12 19.76 15.72 19.76 17.8V21.64C19.76 23.72 19.1867 25.3333 18.04 26.48C16.8933 27.6 15.28 28.16 13.2 28.16H8.16C7.84 28.16 7.68 28.3067 7.68 28.6V36.16C7.68 36.72 7.4 37 6.84 37ZM8.12 23.72H12.36C13.2133 23.72 13.8133 23.5467 14.16 23.2C14.5067 22.8267 14.68 22.2267 14.68 21.4V18.04C14.68 17.1867 14.5067 16.5867 14.16 16.24C13.8133 15.8667 13.2133 15.68 12.36 15.68H8.12C7.82667 15.68 7.68 15.8267 7.68 16.12V23.28C7.68 23.5733 7.82667 23.72 8.12 23.72ZM23.6109 13.16V9.68C23.6109 9.14667 23.8776 8.88 24.4109 8.88H27.8909C28.4243 8.88 28.6909 9.13333 28.6909 9.64V13.16C28.6909 13.6933 28.4243 13.96 27.8909 13.96H24.4109C23.8776 13.96 23.6109 13.6933 23.6109 13.16ZM23.6109 36.16V17.44C23.6109 16.88 23.8776 16.6 24.4109 16.6H27.8509C28.4109 16.6 28.6909 16.88 28.6909 17.44V36.16C28.6909 36.5067 28.6243 36.7333 28.4909 36.84C28.3843 36.9467 28.1843 37 27.8909 37H24.4509C23.8909 37 23.6109 36.72 23.6109 36.16ZM36.6138 43.76H34.0538C33.5204 43.76 33.2538 43.4667 33.2538 42.88V40.2C33.2538 39.6133 33.5204 39.32 34.0538 39.32H34.8938C36.5738 39.32 37.7071 39.08 38.2938 38.6C38.9071 38.1467 39.3738 37.2533 39.6938 35.92H37.5738C37.0671 35.92 36.7338 35.64 36.5738 35.08L31.8938 17.44C31.7338 16.88 31.9338 16.6 32.4938 16.6H36.0538C36.5871 16.6 36.9204 16.88 37.0538 17.44L40.4938 32.2H40.6538L44.0538 17.44C44.1604 16.88 44.4938 16.6 45.0538 16.6H48.4138C49.0804 16.6 49.3471 16.8933 49.2138 17.48L44.3338 37C43.7471 39.2133 42.8404 40.8933 41.6138 42.04C40.3871 43.1867 38.7204 43.76 36.6138 43.76ZM61.8819 37H58.3219C56.2152 37 54.5885 36.44 53.4419 35.32C52.2952 34.2 51.7219 32.5867 51.7219 30.48V23.12C51.7219 21.0133 52.2952 19.4 53.4419 18.28C54.5885 17.16 56.2152 16.6 58.3219 16.6H61.8819C63.9619 16.6 65.5752 17.1733 66.7219 18.32C67.8952 19.44 68.4819 21.04 68.4819 23.12V30.48C68.4819 32.56 67.8952 34.1733 66.7219 35.32C65.5752 36.44 63.9619 37 61.8819 37ZM59.0819 32.64H61.1219C61.9752 32.64 62.5752 32.4667 62.9219 32.12C63.2952 31.7733 63.4819 31.1733 63.4819 30.32V23.28C63.4819 22.4267 63.2952 21.8267 62.9219 21.48C62.5752 21.1333 61.9752 20.96 61.1219 20.96H59.0819C58.2285 20.96 57.6285 21.1333 57.2819 21.48C56.9352 21.8267 56.7619 22.4267 56.7619 23.28V30.32C56.7619 31.1733 56.9352 31.7733 57.2819 32.12C57.6285 32.4667 58.2285 32.64 59.0819 32.64ZM89.9534 11.28H95.8734C96.4334 11.28 96.7134 11.56 96.7134 12.12V36.16C96.7134 36.72 96.4334 37 95.8734 37H92.5934C92.0334 37 91.7534 36.72 91.7534 36.16V17.2H91.5934L87.5134 30.6C87.3534 31.1333 87.0201 31.4 86.5134 31.4H83.1534C82.6468 31.4 82.3134 31.1333 82.1534 30.6L77.9934 17.16H77.8334V36.16C77.8334 36.48 77.7801 36.7067 77.6734 36.84C77.5668 36.9467 77.3401 37 76.9934 37H73.7134C73.1534 37 72.8734 36.72 72.8734 36.16V12.12C72.8734 11.56 73.1534 11.28 73.7134 11.28H79.6734C80.0468 11.28 80.3001 11.4667 80.4334 11.84L84.6734 25.96H84.9134L89.1934 11.84C89.2734 11.4667 89.5268 11.28 89.9534 11.28ZM101.697 13.16V9.68C101.697 9.14667 101.964 8.88 102.497 8.88H105.977C106.51 8.88 106.777 9.13333 106.777 9.64V13.16C106.777 13.6933 106.51 13.96 105.977 13.96H102.497C101.964 13.96 101.697 13.6933 101.697 13.16ZM101.697 36.16V17.44C101.697 16.88 101.964 16.6 102.497 16.6H105.937C106.497 16.6 106.777 16.88 106.777 17.44V36.16C106.777 36.5067 106.71 36.7333 106.577 36.84C106.47 36.9467 106.27 37 105.977 37H102.537C101.977 37 101.697 36.72 101.697 36.16ZM115.62 37H112.22C111.66 37 111.38 36.72 111.38 36.16V17.44C111.38 16.88 111.66 16.6 112.22 16.6H115.62C116.18 16.6 116.46 16.88 116.46 17.44V18.8H116.62C116.913 18.08 117.433 17.5333 118.18 17.16C118.926 16.7867 119.713 16.6 120.54 16.6H121.98C122.513 16.6 122.78 16.88 122.78 17.44V20.2C122.78 20.52 122.713 20.7467 122.58 20.88C122.473 20.9867 122.273 21.0267 121.98 21H119.22C117.38 21 116.46 22.04 116.46 24.12V36.16C116.46 36.72 116.18 37 115.62 37ZM132.685 37H131.365C129.312 37 127.752 36.44 126.685 35.32C125.645 34.2 125.125 32.5867 125.125 30.48V17.44C125.125 16.88 125.405 16.6 125.965 16.6H129.365C129.925 16.6 130.205 16.88 130.205 17.44V30.24C130.205 31.0933 130.378 31.7067 130.725 32.08C131.098 32.4267 131.698 32.6 132.525 32.6H134.005C135.845 32.6 136.765 31.5867 136.765 29.56V17.44C136.765 16.88 137.045 16.6 137.605 16.6H140.965C141.552 16.6 141.845 16.88 141.845 17.44V36.16C141.845 36.72 141.552 37 140.965 37H137.605C137.045 37 136.765 36.72 136.765 36.16V34.84H136.605C136.312 35.56 135.792 36.1067 135.045 36.48C134.298 36.8267 133.512 37 132.685 37Z" fill="#FFFF88"/>
</svg>
